<mxfile host="app.diagrams.net" modified="2023-01-03T09:59:04.379Z" agent="5.0 (Macintosh; Intel Mac OS X 10_15_7) AppleWebKit/537.36 (KHTML, like Gecko) Chrome/108.0.0.0 Safari/537.36" version="20.7.4" etag="79li8529U-SceJf1vUEi" type="github">
  <diagram id="4bPIOxXS7Ri6mOKR6sBD" name="第 1 页">
    <mxGraphModel dx="1306" dy="2005" grid="1" gridSize="10" guides="1" tooltips="1" connect="1" arrows="1" fold="1" page="1" pageScale="1" pageWidth="827" pageHeight="1169" math="0" shadow="0">
      <root>
        <mxCell id="0" />
        <mxCell id="1" parent="0" />
        <mxCell id="NlrVx7OgdfCODWQ9weZM-80" value="对账系统" style="rounded=0;whiteSpace=wrap;html=1;strokeColor=#000000;fontSize=20;verticalAlign=top;" vertex="1" parent="1">
          <mxGeometry x="650" y="920" width="820" height="430" as="geometry" />
        </mxCell>
        <mxCell id="NlrVx7OgdfCODWQ9weZM-83" value="Palmpay侧" style="rounded=0;whiteSpace=wrap;html=1;strokeColor=#000000;fontSize=20;verticalAlign=top;" vertex="1" parent="1">
          <mxGeometry x="680" y="970" width="375.5" height="350" as="geometry" />
        </mxCell>
        <mxCell id="NlrVx7OgdfCODWQ9weZM-37" value="" style="rounded=0;whiteSpace=wrap;html=1;strokeColor=#000000;fontSize=20;" vertex="1" parent="1">
          <mxGeometry x="260" y="180" width="610" height="180" as="geometry" />
        </mxCell>
        <mxCell id="NlrVx7OgdfCODWQ9weZM-27" value="支付渠道" style="rounded=0;whiteSpace=wrap;html=1;strokeColor=#000000;fontSize=20;verticalAlign=top;" vertex="1" parent="1">
          <mxGeometry x="622" y="-30" width="250" height="160" as="geometry" />
        </mxCell>
        <mxCell id="NlrVx7OgdfCODWQ9weZM-24" value="Palmpay" style="rounded=0;whiteSpace=wrap;html=1;strokeColor=#9933FF;fontSize=21;verticalAlign=top;" vertex="1" parent="1">
          <mxGeometry x="180" y="-990" width="740" height="360" as="geometry" />
        </mxCell>
        <mxCell id="NlrVx7OgdfCODWQ9weZM-6" value="支付渠道" style="rounded=0;whiteSpace=wrap;html=1;strokeColor=#000000;verticalAlign=top;fontSize=20;fontStyle=1" vertex="1" parent="1">
          <mxGeometry x="940" y="-990" width="180" height="360" as="geometry" />
        </mxCell>
        <mxCell id="NlrVx7OgdfCODWQ9weZM-9" style="edgeStyle=orthogonalEdgeStyle;rounded=0;orthogonalLoop=1;jettySize=auto;html=1;entryX=0;entryY=0.506;entryDx=0;entryDy=0;entryPerimeter=0;" edge="1" parent="1" source="NlrVx7OgdfCODWQ9weZM-1" target="NlrVx7OgdfCODWQ9weZM-2">
          <mxGeometry relative="1" as="geometry" />
        </mxCell>
        <mxCell id="NlrVx7OgdfCODWQ9weZM-1" value="C端用户" style="shape=umlActor;verticalLabelPosition=bottom;verticalAlign=top;html=1;outlineConnect=0;" vertex="1" parent="1">
          <mxGeometry x="90" y="-885" width="30" height="60" as="geometry" />
        </mxCell>
        <mxCell id="NlrVx7OgdfCODWQ9weZM-17" style="edgeStyle=orthogonalEdgeStyle;rounded=0;orthogonalLoop=1;jettySize=auto;html=1;entryX=0;entryY=0.5;entryDx=0;entryDy=0;" edge="1" parent="1" source="NlrVx7OgdfCODWQ9weZM-2" target="NlrVx7OgdfCODWQ9weZM-3">
          <mxGeometry relative="1" as="geometry" />
        </mxCell>
        <mxCell id="NlrVx7OgdfCODWQ9weZM-40" style="edgeStyle=orthogonalEdgeStyle;rounded=0;orthogonalLoop=1;jettySize=auto;html=1;entryX=0;entryY=0.5;entryDx=0;entryDy=0;fontSize=20;" edge="1" parent="1" source="NlrVx7OgdfCODWQ9weZM-2" target="NlrVx7OgdfCODWQ9weZM-39">
          <mxGeometry relative="1" as="geometry" />
        </mxCell>
        <mxCell id="NlrVx7OgdfCODWQ9weZM-2" value="palmpay app" style="verticalLabelPosition=bottom;verticalAlign=top;html=1;shadow=0;dashed=0;strokeWidth=1;shape=mxgraph.android.phone2;strokeColor=#9933FF;" vertex="1" parent="1">
          <mxGeometry x="230" y="-900" width="50" height="90" as="geometry" />
        </mxCell>
        <mxCell id="NlrVx7OgdfCODWQ9weZM-18" style="edgeStyle=orthogonalEdgeStyle;rounded=0;orthogonalLoop=1;jettySize=auto;html=1;entryX=0;entryY=0.5;entryDx=0;entryDy=0;" edge="1" parent="1" source="NlrVx7OgdfCODWQ9weZM-3" target="NlrVx7OgdfCODWQ9weZM-4">
          <mxGeometry relative="1" as="geometry" />
        </mxCell>
        <mxCell id="NlrVx7OgdfCODWQ9weZM-3" value="交易系统" style="rounded=0;whiteSpace=wrap;html=1;strokeColor=#000000;" vertex="1" parent="1">
          <mxGeometry x="374" y="-885" width="120" height="60" as="geometry" />
        </mxCell>
        <mxCell id="NlrVx7OgdfCODWQ9weZM-19" style="edgeStyle=orthogonalEdgeStyle;rounded=0;orthogonalLoop=1;jettySize=auto;html=1;entryX=0;entryY=0.5;entryDx=0;entryDy=0;" edge="1" parent="1" source="NlrVx7OgdfCODWQ9weZM-4" target="NlrVx7OgdfCODWQ9weZM-5">
          <mxGeometry relative="1" as="geometry" />
        </mxCell>
        <mxCell id="NlrVx7OgdfCODWQ9weZM-4" value="支付系统" style="rounded=0;whiteSpace=wrap;html=1;strokeColor=#000000;" vertex="1" parent="1">
          <mxGeometry x="560" y="-885" width="120" height="60" as="geometry" />
        </mxCell>
        <mxCell id="NlrVx7OgdfCODWQ9weZM-20" style="edgeStyle=orthogonalEdgeStyle;rounded=0;orthogonalLoop=1;jettySize=auto;html=1;entryX=0;entryY=0.5;entryDx=0;entryDy=0;" edge="1" parent="1" source="NlrVx7OgdfCODWQ9weZM-5" target="NlrVx7OgdfCODWQ9weZM-7">
          <mxGeometry relative="1" as="geometry" />
        </mxCell>
        <mxCell id="NlrVx7OgdfCODWQ9weZM-5" value="ng-channel" style="rounded=0;whiteSpace=wrap;html=1;strokeColor=#000000;" vertex="1" parent="1">
          <mxGeometry x="740" y="-885" width="120" height="60" as="geometry" />
        </mxCell>
        <mxCell id="NlrVx7OgdfCODWQ9weZM-8" value="银行" style="rounded=0;whiteSpace=wrap;html=1;strokeColor=#000000;verticalAlign=top;fontSize=20;fontStyle=1" vertex="1" parent="1">
          <mxGeometry x="1160" y="-990" width="200" height="360" as="geometry" />
        </mxCell>
        <mxCell id="NlrVx7OgdfCODWQ9weZM-22" style="edgeStyle=orthogonalEdgeStyle;rounded=0;orthogonalLoop=1;jettySize=auto;html=1;entryX=0;entryY=0.5;entryDx=0;entryDy=0;" edge="1" parent="1" source="NlrVx7OgdfCODWQ9weZM-7" target="NlrVx7OgdfCODWQ9weZM-21">
          <mxGeometry relative="1" as="geometry" />
        </mxCell>
        <mxCell id="NlrVx7OgdfCODWQ9weZM-7" value="Nibss" style="rounded=0;whiteSpace=wrap;html=1;strokeColor=#000000;" vertex="1" parent="1">
          <mxGeometry x="970" y="-885" width="120" height="60" as="geometry" />
        </mxCell>
        <mxCell id="NlrVx7OgdfCODWQ9weZM-10" value="银行" style="rounded=0;whiteSpace=wrap;html=1;strokeColor=#000000;verticalAlign=top;" vertex="1" parent="1">
          <mxGeometry x="277" y="-550" width="225" height="340" as="geometry" />
        </mxCell>
        <mxCell id="NlrVx7OgdfCODWQ9weZM-11" value="银行" style="rounded=0;whiteSpace=wrap;html=1;strokeColor=#000000;verticalAlign=top;" vertex="1" parent="1">
          <mxGeometry x="622" y="-550" width="225" height="340" as="geometry" />
        </mxCell>
        <mxCell id="NlrVx7OgdfCODWQ9weZM-15" style="edgeStyle=orthogonalEdgeStyle;rounded=0;orthogonalLoop=1;jettySize=auto;html=1;entryX=0;entryY=0.5;entryDx=0;entryDy=0;" edge="1" parent="1" source="NlrVx7OgdfCODWQ9weZM-12" target="NlrVx7OgdfCODWQ9weZM-13">
          <mxGeometry relative="1" as="geometry" />
        </mxCell>
        <mxCell id="NlrVx7OgdfCODWQ9weZM-16" value="资金流" style="edgeLabel;html=1;align=center;verticalAlign=middle;resizable=0;points=[];" vertex="1" connectable="0" parent="NlrVx7OgdfCODWQ9weZM-15">
          <mxGeometry x="-0.0826" y="2" relative="1" as="geometry">
            <mxPoint as="offset" />
          </mxGeometry>
        </mxCell>
        <mxCell id="NlrVx7OgdfCODWQ9weZM-12" value="C端用户银行卡" style="image;html=1;image=img/lib/clip_art/finance/Credit_Card_128x128.png;strokeColor=#000000;" vertex="1" parent="1">
          <mxGeometry x="342" y="-480" width="80" height="80" as="geometry" />
        </mxCell>
        <mxCell id="NlrVx7OgdfCODWQ9weZM-13" value="palmpay收款账户" style="image;html=1;image=img/lib/clip_art/finance/Credit_Card_128x128.png;strokeColor=#000000;" vertex="1" parent="1">
          <mxGeometry x="694.5" y="-480" width="80" height="80" as="geometry" />
        </mxCell>
        <mxCell id="NlrVx7OgdfCODWQ9weZM-14" value="palmpay费用账户" style="image;html=1;image=img/lib/clip_art/finance/Credit_Card_128x128.png;strokeColor=#000000;" vertex="1" parent="1">
          <mxGeometry x="694.5" y="-350" width="80" height="80" as="geometry" />
        </mxCell>
        <mxCell id="NlrVx7OgdfCODWQ9weZM-21" value="结算系统" style="rounded=0;whiteSpace=wrap;html=1;strokeColor=#000000;" vertex="1" parent="1">
          <mxGeometry x="1201" y="-885" width="120" height="60" as="geometry" />
        </mxCell>
        <mxCell id="NlrVx7OgdfCODWQ9weZM-23" value="信息流" style="text;html=1;strokeColor=none;fillColor=none;align=center;verticalAlign=middle;whiteSpace=wrap;rounded=0;fontSize=21;fontStyle=1" vertex="1" parent="1">
          <mxGeometry x="70" y="-1080" width="96" height="30" as="geometry" />
        </mxCell>
        <mxCell id="NlrVx7OgdfCODWQ9weZM-25" value="资金流" style="text;html=1;strokeColor=none;fillColor=none;align=center;verticalAlign=middle;whiteSpace=wrap;rounded=0;fontSize=21;fontStyle=1" vertex="1" parent="1">
          <mxGeometry x="70" y="-590" width="96" height="30" as="geometry" />
        </mxCell>
        <mxCell id="NlrVx7OgdfCODWQ9weZM-26" value="Palmpay" style="rounded=0;whiteSpace=wrap;html=1;strokeColor=#9933FF;fontSize=20;verticalAlign=top;" vertex="1" parent="1">
          <mxGeometry x="260" y="-30" width="250" height="160" as="geometry" />
        </mxCell>
        <mxCell id="NlrVx7OgdfCODWQ9weZM-38" style="edgeStyle=orthogonalEdgeStyle;rounded=0;orthogonalLoop=1;jettySize=auto;html=1;entryX=0.5;entryY=0;entryDx=0;entryDy=0;fontSize=20;exitX=0;exitY=0.5;exitDx=0;exitDy=0;" edge="1" parent="1" source="NlrVx7OgdfCODWQ9weZM-30" target="NlrVx7OgdfCODWQ9weZM-37">
          <mxGeometry relative="1" as="geometry" />
        </mxCell>
        <mxCell id="NlrVx7OgdfCODWQ9weZM-28" value="信息流&amp;nbsp; 描述&amp;nbsp; 资金流" style="text;html=1;strokeColor=none;fillColor=none;align=center;verticalAlign=middle;whiteSpace=wrap;rounded=0;fontSize=21;fontStyle=1" vertex="1" parent="1">
          <mxGeometry x="40" y="-90" width="210" height="30" as="geometry" />
        </mxCell>
        <mxCell id="NlrVx7OgdfCODWQ9weZM-36" value="描述" style="edgeStyle=orthogonalEdgeStyle;rounded=0;orthogonalLoop=1;jettySize=auto;html=1;fontSize=20;entryX=0.5;entryY=0;entryDx=0;entryDy=0;exitX=1;exitY=0.5;exitDx=0;exitDy=0;" edge="1" parent="1" source="NlrVx7OgdfCODWQ9weZM-29" target="NlrVx7OgdfCODWQ9weZM-37">
          <mxGeometry relative="1" as="geometry">
            <mxPoint x="540" y="190" as="targetPoint" />
          </mxGeometry>
        </mxCell>
        <mxCell id="NlrVx7OgdfCODWQ9weZM-29" value="支付流水" style="rounded=0;whiteSpace=wrap;html=1;strokeColor=#000000;fontSize=20;" vertex="1" parent="1">
          <mxGeometry x="325" y="20" width="120" height="60" as="geometry" />
        </mxCell>
        <mxCell id="NlrVx7OgdfCODWQ9weZM-30" value="账户变动流水" style="rounded=0;whiteSpace=wrap;html=1;strokeColor=#000000;fontSize=20;" vertex="1" parent="1">
          <mxGeometry x="680.5" y="20" width="133" height="60" as="geometry" />
        </mxCell>
        <mxCell id="NlrVx7OgdfCODWQ9weZM-32" style="edgeStyle=orthogonalEdgeStyle;rounded=0;orthogonalLoop=1;jettySize=auto;html=1;entryX=0;entryY=0.5;entryDx=0;entryDy=0;" edge="1" parent="1" source="NlrVx7OgdfCODWQ9weZM-34" target="NlrVx7OgdfCODWQ9weZM-35">
          <mxGeometry relative="1" as="geometry" />
        </mxCell>
        <mxCell id="NlrVx7OgdfCODWQ9weZM-33" value="资金流" style="edgeLabel;html=1;align=center;verticalAlign=middle;resizable=0;points=[];" vertex="1" connectable="0" parent="NlrVx7OgdfCODWQ9weZM-32">
          <mxGeometry x="-0.0826" y="2" relative="1" as="geometry">
            <mxPoint as="offset" />
          </mxGeometry>
        </mxCell>
        <mxCell id="NlrVx7OgdfCODWQ9weZM-34" value="C端用户银行卡" style="image;html=1;image=img/lib/clip_art/finance/Credit_Card_128x128.png;strokeColor=#000000;" vertex="1" parent="1">
          <mxGeometry x="333.75" y="210" width="80" height="80" as="geometry" />
        </mxCell>
        <mxCell id="NlrVx7OgdfCODWQ9weZM-35" value="palmpay收款账户" style="image;html=1;image=img/lib/clip_art/finance/Credit_Card_128x128.png;strokeColor=#000000;" vertex="1" parent="1">
          <mxGeometry x="686.25" y="210" width="80" height="80" as="geometry" />
        </mxCell>
        <mxCell id="NlrVx7OgdfCODWQ9weZM-39" value="计费系统" style="rounded=0;whiteSpace=wrap;html=1;strokeColor=#000000;" vertex="1" parent="1">
          <mxGeometry x="374" y="-770" width="120" height="60" as="geometry" />
        </mxCell>
        <mxCell id="NlrVx7OgdfCODWQ9weZM-41" value="" style="shape=image;html=1;verticalAlign=top;verticalLabelPosition=bottom;labelBackgroundColor=#ffffff;imageAspect=0;aspect=fixed;image=https://cdn4.iconfinder.com/data/icons/aiga-symbol-signs/441/aiga_cashier-128.png;strokeColor=#000000;fontSize=20;" vertex="1" parent="1">
          <mxGeometry x="530" y="-425" width="40" height="40" as="geometry" />
        </mxCell>
        <mxCell id="NlrVx7OgdfCODWQ9weZM-42" value="" style="shape=image;html=1;verticalAlign=top;verticalLabelPosition=bottom;labelBackgroundColor=#ffffff;imageAspect=0;aspect=fixed;image=https://cdn2.iconfinder.com/data/icons/social-media-and-payment/64/-69-128.png;strokeColor=#000000;fontSize=20;" vertex="1" parent="1">
          <mxGeometry x="962" y="-758" width="128" height="128" as="geometry" />
        </mxCell>
        <mxCell id="NlrVx7OgdfCODWQ9weZM-55" value="计费系统" style="rounded=0;whiteSpace=wrap;html=1;strokeColor=#000000;fontSize=20;verticalAlign=top;" vertex="1" parent="1">
          <mxGeometry x="180" y="510" width="360" height="310" as="geometry" />
        </mxCell>
        <mxCell id="NlrVx7OgdfCODWQ9weZM-56" value="税" style="rounded=0;whiteSpace=wrap;html=1;strokeColor=#000000;fontSize=20;" vertex="1" parent="1">
          <mxGeometry x="222" y="590" width="120" height="60" as="geometry" />
        </mxCell>
        <mxCell id="NlrVx7OgdfCODWQ9weZM-57" value="费" style="rounded=0;whiteSpace=wrap;html=1;strokeColor=#000000;fontSize=20;" vertex="1" parent="1">
          <mxGeometry x="222" y="680" width="120" height="60" as="geometry" />
        </mxCell>
        <mxCell id="NlrVx7OgdfCODWQ9weZM-58" value="优惠" style="rounded=0;whiteSpace=wrap;html=1;strokeColor=#000000;fontSize=20;verticalAlign=top;" vertex="1" parent="1">
          <mxGeometry x="370" y="590" width="150" height="190" as="geometry" />
        </mxCell>
        <mxCell id="NlrVx7OgdfCODWQ9weZM-59" value="满减" style="rounded=0;whiteSpace=wrap;html=1;strokeColor=#000000;fontSize=20;" vertex="1" parent="1">
          <mxGeometry x="385" y="635" width="120" height="60" as="geometry" />
        </mxCell>
        <mxCell id="NlrVx7OgdfCODWQ9weZM-60" value="折扣" style="rounded=0;whiteSpace=wrap;html=1;strokeColor=#000000;fontSize=20;" vertex="1" parent="1">
          <mxGeometry x="385" y="710" width="120" height="60" as="geometry" />
        </mxCell>
        <mxCell id="NlrVx7OgdfCODWQ9weZM-61" value="交易系统" style="rounded=0;whiteSpace=wrap;html=1;strokeColor=#000000;fontSize=20;verticalAlign=top;" vertex="1" parent="1">
          <mxGeometry x="610" y="510" width="380" height="310" as="geometry" />
        </mxCell>
        <mxCell id="NlrVx7OgdfCODWQ9weZM-62" value="计费快照" style="rounded=0;whiteSpace=wrap;html=1;strokeColor=#000000;fontSize=20;" vertex="1" parent="1">
          <mxGeometry x="646.25" y="590" width="120" height="60" as="geometry" />
        </mxCell>
        <mxCell id="NlrVx7OgdfCODWQ9weZM-63" value="交易快照" style="rounded=0;whiteSpace=wrap;html=1;strokeColor=#000000;fontSize=20;" vertex="1" parent="1">
          <mxGeometry x="646.25" y="684" width="120" height="60" as="geometry" />
        </mxCell>
        <mxCell id="NlrVx7OgdfCODWQ9weZM-64" value="支付系统" style="rounded=0;whiteSpace=wrap;html=1;strokeColor=#000000;fontSize=20;verticalAlign=top;" vertex="1" parent="1">
          <mxGeometry x="1090" y="510" width="380" height="310" as="geometry" />
        </mxCell>
        <mxCell id="NlrVx7OgdfCODWQ9weZM-65" value="支付流水" style="rounded=0;whiteSpace=wrap;html=1;strokeColor=#000000;fontSize=20;verticalAlign=top;" vertex="1" parent="1">
          <mxGeometry x="1130" y="590" width="170" height="210" as="geometry" />
        </mxCell>
        <mxCell id="NlrVx7OgdfCODWQ9weZM-66" value="现金" style="rounded=0;whiteSpace=wrap;html=1;strokeColor=#000000;fontSize=20;" vertex="1" parent="1">
          <mxGeometry x="1155" y="635" width="120" height="60" as="geometry" />
        </mxCell>
        <mxCell id="NlrVx7OgdfCODWQ9weZM-67" value="卡券积分" style="rounded=0;whiteSpace=wrap;html=1;strokeColor=#000000;fontSize=20;" vertex="1" parent="1">
          <mxGeometry x="1155" y="720" width="120" height="60" as="geometry" />
        </mxCell>
        <mxCell id="NlrVx7OgdfCODWQ9weZM-68" value="账务系统" style="rounded=0;whiteSpace=wrap;html=1;strokeColor=#000000;fontSize=20;verticalAlign=top;" vertex="1" parent="1">
          <mxGeometry x="1580" y="600" width="645.75" height="590" as="geometry" />
        </mxCell>
        <mxCell id="NlrVx7OgdfCODWQ9weZM-69" value="C端账户" style="rounded=0;whiteSpace=wrap;html=1;strokeColor=#000000;fontSize=20;verticalAlign=top;" vertex="1" parent="1">
          <mxGeometry x="1612" y="670" width="163.75" height="300" as="geometry" />
        </mxCell>
        <mxCell id="NlrVx7OgdfCODWQ9weZM-70" value="B端账户" style="rounded=0;whiteSpace=wrap;html=1;strokeColor=#000000;fontSize=20;verticalAlign=top;" vertex="1" parent="1">
          <mxGeometry x="1805.75" y="670" width="170" height="300" as="geometry" />
        </mxCell>
        <mxCell id="NlrVx7OgdfCODWQ9weZM-71" value="Palmpay账户" style="rounded=0;whiteSpace=wrap;html=1;strokeColor=#000000;fontSize=20;verticalAlign=top;" vertex="1" parent="1">
          <mxGeometry x="2005.75" y="670" width="180" height="300" as="geometry" />
        </mxCell>
        <mxCell id="NlrVx7OgdfCODWQ9weZM-72" value="余额" style="rounded=0;whiteSpace=wrap;html=1;strokeColor=#000000;fontSize=20;" vertex="1" parent="1">
          <mxGeometry x="1633.88" y="720" width="120" height="60" as="geometry" />
        </mxCell>
        <mxCell id="NlrVx7OgdfCODWQ9weZM-73" value="余额" style="rounded=0;whiteSpace=wrap;html=1;strokeColor=#000000;fontSize=20;" vertex="1" parent="1">
          <mxGeometry x="1830.75" y="720" width="120" height="60" as="geometry" />
        </mxCell>
        <mxCell id="NlrVx7OgdfCODWQ9weZM-74" value="本金" style="rounded=0;whiteSpace=wrap;html=1;strokeColor=#000000;fontSize=20;" vertex="1" parent="1">
          <mxGeometry x="2035.75" y="720" width="120" height="60" as="geometry" />
        </mxCell>
        <mxCell id="NlrVx7OgdfCODWQ9weZM-75" value="手续费" style="rounded=0;whiteSpace=wrap;html=1;strokeColor=#000000;fontSize=20;" vertex="1" parent="1">
          <mxGeometry x="2035.75" y="800" width="120" height="60" as="geometry" />
        </mxCell>
        <mxCell id="NlrVx7OgdfCODWQ9weZM-76" value="佣金" style="rounded=0;whiteSpace=wrap;html=1;strokeColor=#000000;fontSize=20;" vertex="1" parent="1">
          <mxGeometry x="2035.75" y="880" width="120" height="60" as="geometry" />
        </mxCell>
        <mxCell id="NlrVx7OgdfCODWQ9weZM-77" value="账户流水" style="rounded=0;whiteSpace=wrap;html=1;strokeColor=#000000;fontSize=20;verticalAlign=top;" vertex="1" parent="1">
          <mxGeometry x="1612" y="1010" width="583.75" height="140" as="geometry" />
        </mxCell>
        <mxCell id="NlrVx7OgdfCODWQ9weZM-78" value="入账流水" style="rounded=0;whiteSpace=wrap;html=1;strokeColor=#000000;fontSize=20;" vertex="1" parent="1">
          <mxGeometry x="1655.75" y="1060" width="120" height="60" as="geometry" />
        </mxCell>
        <mxCell id="NlrVx7OgdfCODWQ9weZM-79" value="出账流水" style="rounded=0;whiteSpace=wrap;html=1;strokeColor=#000000;fontSize=20;" vertex="1" parent="1">
          <mxGeometry x="1830.75" y="1060" width="120" height="60" as="geometry" />
        </mxCell>
        <mxCell id="NlrVx7OgdfCODWQ9weZM-81" value="计费快照" style="rounded=0;whiteSpace=wrap;html=1;strokeColor=#000000;fontSize=20;dashed=1;" vertex="1" parent="1">
          <mxGeometry x="710" y="1020" width="120" height="60" as="geometry" />
        </mxCell>
        <mxCell id="NlrVx7OgdfCODWQ9weZM-82" value="交易快照" style="rounded=0;whiteSpace=wrap;html=1;strokeColor=#000000;fontSize=20;dashed=1;" vertex="1" parent="1">
          <mxGeometry x="710" y="1120" width="120" height="60" as="geometry" />
        </mxCell>
        <mxCell id="NlrVx7OgdfCODWQ9weZM-84" value="支付流水" style="rounded=0;whiteSpace=wrap;html=1;strokeColor=#000000;fontSize=20;verticalAlign=top;dashed=1;" vertex="1" parent="1">
          <mxGeometry x="870" y="1020" width="170" height="210" as="geometry" />
        </mxCell>
        <mxCell id="NlrVx7OgdfCODWQ9weZM-85" value="现金" style="rounded=0;whiteSpace=wrap;html=1;strokeColor=#000000;fontSize=20;dashed=1;" vertex="1" parent="1">
          <mxGeometry x="895" y="1065" width="120" height="60" as="geometry" />
        </mxCell>
        <mxCell id="NlrVx7OgdfCODWQ9weZM-86" value="卡券积分" style="rounded=0;whiteSpace=wrap;html=1;strokeColor=#000000;fontSize=20;dashed=1;" vertex="1" parent="1">
          <mxGeometry x="895" y="1150" width="120" height="60" as="geometry" />
        </mxCell>
        <mxCell id="NlrVx7OgdfCODWQ9weZM-87" value="Palmpay侧" style="rounded=0;whiteSpace=wrap;html=1;strokeColor=#000000;fontSize=20;verticalAlign=top;" vertex="1" parent="1">
          <mxGeometry x="1072.25" y="970" width="375.5" height="350" as="geometry" />
        </mxCell>
        <mxCell id="NlrVx7OgdfCODWQ9weZM-88" value="对账文件" style="rounded=0;whiteSpace=wrap;html=1;strokeColor=#000000;fontSize=20;verticalAlign=top;" vertex="1" parent="1">
          <mxGeometry x="1100" y="1020" width="200" height="210" as="geometry" />
        </mxCell>
        <mxCell id="NlrVx7OgdfCODWQ9weZM-89" value="流水明细" style="rounded=0;whiteSpace=wrap;html=1;strokeColor=#000000;fontSize=20;" vertex="1" parent="1">
          <mxGeometry x="1141" y="1065" width="120" height="60" as="geometry" />
        </mxCell>
        <mxCell id="NlrVx7OgdfCODWQ9weZM-90" value="出入金汇总" style="rounded=0;whiteSpace=wrap;html=1;strokeColor=#000000;fontSize=20;" vertex="1" parent="1">
          <mxGeometry x="1140" y="1150" width="120" height="60" as="geometry" />
        </mxCell>
        <mxCell id="NlrVx7OgdfCODWQ9weZM-92" value="compare" style="edgeStyle=orthogonalEdgeStyle;curved=1;rounded=0;orthogonalLoop=1;jettySize=auto;html=1;entryX=0;entryY=0.5;entryDx=0;entryDy=0;fontSize=13;" edge="1" parent="1" source="NlrVx7OgdfCODWQ9weZM-84" target="NlrVx7OgdfCODWQ9weZM-89">
          <mxGeometry relative="1" as="geometry" />
        </mxCell>
        <mxCell id="NlrVx7OgdfCODWQ9weZM-93" value="" style="shape=image;html=1;verticalAlign=top;verticalLabelPosition=bottom;labelBackgroundColor=#ffffff;imageAspect=0;aspect=fixed;image=https://cdn4.iconfinder.com/data/icons/48-bubbles/48/04.Bank-128.png;dashed=1;strokeColor=#000000;fontSize=13;" vertex="1" parent="1">
          <mxGeometry x="1210" y="-738" width="88" height="88" as="geometry" />
        </mxCell>
      </root>
    </mxGraphModel>
  </diagram>
</mxfile>
